<?xml version="1.0" encoding="UTF-8" standalone="no"?>
<svg
   xmlns:dc="http://purl.org/dc/elements/1.1/"
   xmlns:cc="http://creativecommons.org/ns#"
   xmlns:rdf="http://www.w3.org/1999/02/22-rdf-syntax-ns#"
   xmlns:svg="http://www.w3.org/2000/svg"
   xmlns="http://www.w3.org/2000/svg"
   xmlns:sodipodi="http://sodipodi.sourceforge.net/DTD/sodipodi-0.dtd"
   xmlns:inkscape="http://www.inkscape.org/namespaces/inkscape"
   version="1.1"
   id="Layer_1"
   x="0px"
   y="0px"
   width="100%"
   viewBox="0 0 986 550"
   enable-background="new 0 0 986 550"
   xml:space="preserve"
   sodipodi:docname="Crest of Friendship.svg"
   inkscape:version="0.92.3 (2405546, 2018-03-11)"><metadata
   id="metadata15"><rdf:RDF><cc:Work
       rdf:about=""><dc:format>image/svg+xml</dc:format><dc:type
         rdf:resource="http://purl.org/dc/dcmitype/StillImage" /></cc:Work></rdf:RDF></metadata><defs
   id="defs13" /><sodipodi:namedview
   pagecolor="#ffffff"
   bordercolor="#666666"
   borderopacity="1"
   objecttolerance="10"
   gridtolerance="10"
   guidetolerance="10"
   inkscape:pageopacity="0"
   inkscape:pageshadow="2"
   inkscape:window-width="1920"
   inkscape:window-height="1017"
   id="namedview11"
   showgrid="false"
   inkscape:zoom="1.2627263"
   inkscape:cx="413.33231"
   inkscape:cy="243.32251"
   inkscape:window-x="-8"
   inkscape:window-y="-8"
   inkscape:window-maximized="1"
   inkscape:current-layer="Layer_1" />

<path
   d="m 342.5411,500.90887 c -38.45422,-25.98493 -68.27219,-59.23682 -89.92288,-99.88331 -1.3038,-2.44772 -3.63632,-4.76327 -6.0596,-6.13253 -17.96318,-10.15039 -37.59867,-15.33106 -57.89748,-17.48346 -59.19469,-6.27689 -116.475294,2.69018 -172.216747,22.83288 -3.387593,1.22416 -6.6688133,2.74271 -11.1057433,4.58313 0.99831,-13.49148 1.597763,-26.10714 2.926783,-38.64547 3.0880133,-29.13309 9.7951673,-57.3758 22.3139143,-84.01197 23.797635,-50.63431 63.760911,-82.08925 116.773443,-97.85573 29.26666,-8.70417 59.3031,-12.15808 89.74643,-12.24986 4.01094,-0.0121 5.61353,-1.38809 7.24626,-4.91507 C 285.18749,78.922701 353.16967,24.441946 448.97506,7.6945647 564.46423,-12.493664 678.82549,45.366056 733.63067,149.07055 c 1.43542,2.71615 4.07452,5.27098 6.7796,6.76581 20.48639,11.32083 42.87598,16.39178 65.92285,18.10389 56.12085,4.16915 110.51136,-4.40671 163.29987,-23.64406 1.71698,-0.62571 3.39191,-1.36906 5.07703,-2.07977 1.65472,-0.69783 3.29742,-1.42401 4.83996,-2.09207 0.43207,0.45547 0.82147,0.67529 0.81867,0.89008 -0.59821,46.49543 -7.90711,91.51673 -30.54956,132.87759 -24.45978,44.68051 -62.72699,71.93323 -110.89118,86.24322 -29.43463,8.74537 -59.6394,12.1384 -90.25006,12.24677 -3.35992,0.0119 -4.8877,1.07105 -6.27563,4.09589 -40.63868,88.56936 -108.65155,143.12475 -204.61499,160.13232 -69.95917,12.3988 -135.32474,-2.47717 -195.24613,-41.70135 M 358.60342,389.3095 c 21.91449,25.60315 48.81595,43.63721 81.81604,54.31964 -13.37577,-22.80685 -19.72336,-46.54861 -20.12613,-71.79642 -0.6008,-37.65713 10.6355,-71.51336 32.20373,-102.44345 25.88703,-37.12347 35.85743,-78.25639 27.6507,-123.18815 -2.91846,-15.97844 -8.68781,-30.94222 -17.23245,-44.6674 -59.07764,8.71863 -113.43854,52.65781 -134.45447,110.88511 -23.07459,63.93111 -12.79977,123.04817 30.14258,176.89067 M 546.91021,108.29086 c 12.56494,21.81065 18.85327,45.38935 19.21741,70.47093 0.54681,37.65925 -10.78766,71.45236 -32.30011,102.41993 -26.79294,38.56882 -36.53781,81.18787 -26.58292,127.59986 3.08209,14.36929 8.53708,27.85858 16.36124,40.19973 92.75421,-16.62289 156.30029,-101.42337 144.56433,-194.47709 -8.48114,-67.2457 -45.45044,-114.29131 -107.01105,-142.14765 -4.59796,-2.08059 -9.64172,-3.17619 -14.2489,-4.06571 z"
   id="path4"
   inkscape:connector-curvature="0"
   style="opacity:1;fill:#0164fa;stroke:none" />


</svg>