<?xml version="1.0" encoding="UTF-8" standalone="no"?>
<svg
   xmlns:dc="http://purl.org/dc/elements/1.1/"
   xmlns:cc="http://creativecommons.org/ns#"
   xmlns:rdf="http://www.w3.org/1999/02/22-rdf-syntax-ns#"
   xmlns:svg="http://www.w3.org/2000/svg"
   xmlns="http://www.w3.org/2000/svg"
   xmlns:sodipodi="http://sodipodi.sourceforge.net/DTD/sodipodi-0.dtd"
   xmlns:inkscape="http://www.inkscape.org/namespaces/inkscape"
   version="1.1"
   id="Layer_1"
   x="0px"
   y="0px"
   width="100%"
   viewBox="0 0 611 1000"
   enable-background="new 0 0 611 1000"
   xml:space="preserve"
   sodipodi:docname="Crest of Sincerity.svg"
   inkscape:version="0.92.3 (2405546, 2018-03-11)"><metadata
   id="metadata19"><rdf:RDF><cc:Work
       rdf:about=""><dc:format>image/svg+xml</dc:format><dc:type
         rdf:resource="http://purl.org/dc/dcmitype/StillImage" /></cc:Work></rdf:RDF></metadata><defs
   id="defs17" /><sodipodi:namedview
   pagecolor="#ffffff"
   bordercolor="#666666"
   borderopacity="1"
   objecttolerance="10"
   gridtolerance="10"
   guidetolerance="10"
   inkscape:pageopacity="0"
   inkscape:pageshadow="2"
   inkscape:window-width="1920"
   inkscape:window-height="1017"
   id="namedview15"
   showgrid="false"
   inkscape:zoom="0.70710678"
   inkscape:cx="429.86898"
   inkscape:cy="334.50249"
   inkscape:window-x="-8"
   inkscape:window-y="-8"
   inkscape:window-maximized="1"
   inkscape:current-layer="Layer_1" />

<path
   d=" M213.120010,915.000000   C213.120087,815.211853 213.120087,715.923767 213.120087,616.149170   C146.687088,616.149170 80.765251,616.149170 14.472075,616.149170   C14.472075,539.288391 14.472075,462.914307 14.472075,386.042755   C80.573563,386.042755 146.489044,386.042755 213.028229,386.042755   C213.028229,261.669861 213.028229,137.791565 213.028229,13.599740   C275.212555,13.599740 336.771118,13.599740 398.769531,13.599740   C398.769531,137.666245 398.769531,261.432495 398.769531,385.861084   C465.245544,385.861084 531.286987,385.861084 597.612915,385.861084   C597.612915,462.774750 597.612915,539.025818 597.612915,615.782959   C531.600525,615.782959 465.690765,615.782959 399.158569,615.782959   C399.158569,740.165649 399.158569,864.045471 399.158569,988.319824   C336.977386,988.319824 275.418610,988.319824 213.119934,988.319824   C213.119934,964.011353 213.119934,939.755676 213.120010,915.000000  z"
   id="path4"
   stroke="none"
   fill="#969696"
   opacity="1.000000" />
<path
   d="M 26.056473,113.22169 H 182.817 V 336.9895 C 128.2642,259.07193 76.63722,185.32926 26.056473,113.22169 Z"
   id="path6"
   inkscape:connector-curvature="0"
   style="opacity:1;fill:#969696;stroke:none"
   sodipodi:nodetypes="cccc" />
<path
   d="m 25.896635,889.05742 157.240205,-222.54649 0.0155,222.54815 z"
   id="path8"
   inkscape:connector-curvature="0"
   style="opacity:1;fill:#969696;stroke:none"
   sodipodi:nodetypes="cccc" />
<path
   d="M 428.80236,112.9647 586.08801,112.9362 428.80177,337.07198 Z"
   id="path10"
   inkscape:connector-curvature="0"
   style="opacity:1;fill:#969696;stroke:none"
   sodipodi:nodetypes="cccc" />
<path
   d="M 585.77521,888.64996 H 429.08868 V 666.56671 Z"
   id="path12"
   inkscape:connector-curvature="0"
   style="opacity:1;fill:#969696;stroke:none"
   sodipodi:nodetypes="cccc" />
</svg>