<?xml version="1.0" encoding="UTF-8" standalone="no"?>
<svg
   xmlns:dc="http://purl.org/dc/elements/1.1/"
   xmlns:cc="http://creativecommons.org/ns#"
   xmlns:rdf="http://www.w3.org/1999/02/22-rdf-syntax-ns#"
   xmlns:svg="http://www.w3.org/2000/svg"
   xmlns="http://www.w3.org/2000/svg"
   xmlns:sodipodi="http://sodipodi.sourceforge.net/DTD/sodipodi-0.dtd"
   xmlns:inkscape="http://www.inkscape.org/namespaces/inkscape"
   version="1.1"
   id="Layer_1"
   x="0px"
   y="0px"
   width="100%"
   viewBox="0 0 997 993"
   enable-background="new 0 0 997 993"
   xml:space="preserve"
   sodipodi:docname="Crest of Light.svg"
   inkscape:version="0.92.3 (2405546, 2018-03-11)"><metadata
   id="metadata27"><rdf:RDF><cc:Work
       rdf:about=""><dc:format>image/svg+xml</dc:format><dc:type
         rdf:resource="http://purl.org/dc/dcmitype/StillImage" /></cc:Work></rdf:RDF></metadata><defs
   id="defs25" /><sodipodi:namedview
   pagecolor="#ffffff"
   bordercolor="#666666"
   borderopacity="1"
   objecttolerance="10"
   gridtolerance="10"
   guidetolerance="10"
   inkscape:pageopacity="0"
   inkscape:pageshadow="2"
   inkscape:window-width="1920"
   inkscape:window-height="1017"
   id="namedview23"
   showgrid="false"
   inkscape:zoom="0.5209554"
   inkscape:cx="325.69858"
   inkscape:cy="496.5"
   inkscape:window-x="-8"
   inkscape:window-y="-8"
   inkscape:window-maximized="1"
   inkscape:current-layer="Layer_1" />

<path
   fill="#FA96FA"
   opacity="1.000000"
   stroke="none"
   d=" M903.678223,89.680725   C906.718750,88.018349 909.436951,86.533249 912.155151,85.048149   C912.439941,85.289452 912.724731,85.530762 913.009521,85.772064   C909.444702,92.196060 905.912720,98.638542 902.309143,105.040756   C888.030212,130.409348 873.726746,155.764221 859.436096,181.126236   C842.205383,211.706085 824.970459,242.283569 807.752197,272.870422   C793.634644,297.949097 779.548218,323.045288 765.431030,348.124146   C750.661133,374.362457 735.903503,400.607910 721.006653,426.774048   C720.133789,428.307343 718.238342,429.629333 716.527710,430.258728   C693.912598,438.579681 671.246704,446.762604 648.589905,454.969940   C643.901550,456.668243 639.123779,458.146606 634.526184,460.060120   C631.077209,461.495605 629.569763,460.717987 628.469910,457.082367   C623.749390,441.478210 616.326782,427.237854 606.082336,414.512268   C589.285278,393.646881 568.485535,378.472504 542.907166,370.091309   C536.481262,367.985779 536.399292,367.939728 538.650696,361.690918   C548.285278,334.950043 557.928894,308.212036 567.741760,281.536469   C568.459656,279.585083 570.228271,277.571655 572.048462,276.540375   C611.706482,254.071503 651.453491,231.759949 691.157715,209.372604   C734.338745,185.024872 777.478577,160.604141 820.665283,136.266602   C848.201538,120.748764 875.790527,105.324310 903.678223,89.680725  z"
   id="path4" />
<path
   fill="#FA96FA"
   opacity="1.000000"
   stroke="none"
   d=" M127.718437,106.304199   C156.448303,122.487686 184.844727,138.512329 213.263260,154.497665   C238.493301,168.689514 263.764069,182.808945 288.987732,197.012070   C324.791931,217.172943 360.566559,237.386261 396.359985,257.566284   C407.518860,263.857544 418.746918,270.028778 429.818237,276.469940   C431.641785,277.530884 433.480255,279.461853 434.192932,281.401764   C444.275146,308.845062 454.054840,336.399719 464.196594,363.820648   C466.098572,368.963196 462.587708,368.957703 459.767883,369.902161   C423.863403,381.928009 397.648285,405.119995 380.713715,438.826508   C377.742859,444.739655 375.514191,451.071198 373.447205,457.374908   C372.308197,460.848602 370.899872,461.289612 367.667725,460.108948   C340.344208,450.128204 312.956390,440.323334 285.639679,430.324219   C283.798523,429.650299 281.794891,428.158295 280.848053,426.489899   C262.701965,394.514954 244.724442,362.444397 226.667526,330.418732   C208.284271,297.814301 189.816238,265.257660 171.453430,232.641724   C155.538132,204.373062 139.737534,176.039871 123.849335,147.755936   C112.931694,128.320511 101.947906,108.922264 91.005508,89.500740   C90.318024,88.280540 89.733505,87.002335 89.870552,84.931328   C102.378571,91.996971 114.886597,99.062622 127.718437,106.304199  z"
   id="path6" />
<path
   fill="#FA96FA"
   opacity="1.000000"
   stroke="none"
   d=" M234.200073,650.186279   C249.819916,622.477844 265.199066,595.053040 280.727142,567.712830   C281.682037,566.031494 283.603149,564.447815 285.426910,563.778809   C312.736664,553.760376 340.122711,543.950073 367.439331,533.950195   C370.873108,532.693176 372.388977,533.189453 373.517181,536.881348   C380.379791,559.338135 392.663818,578.388855 409.771454,594.489990   C424.330750,608.192749 440.989105,618.196655 460.056854,624.058533   C464.386414,625.389587 465.513580,626.901123 463.850403,631.393860   C453.873535,658.344849 444.224518,685.416992 434.296112,712.386169   C433.575317,714.344116 431.840912,716.387512 430.025330,717.416321   C390.367157,739.888672 350.618500,762.201294 310.912231,784.588989   C267.728943,808.937256 224.584473,833.354370 181.397385,857.695923   C151.542648,874.522888 121.645515,891.274719 91.757103,908.041870   C91.112373,908.403564 90.343391,908.543762 88.289879,909.247131   C137.284775,822.235840 185.638916,736.362488 234.200073,650.186279  z"
   id="path8" />
<path
   fill="#FA96FA"
   opacity="1.000000"
   stroke="none"
   d=" M552.363647,670.605347   C547.672546,657.568665 543.107300,644.902649 538.607544,632.213318   C536.411377,626.020203 536.478027,626.034729 542.521301,623.996643   C578.206848,611.961670 604.299133,588.865784 621.207458,555.354980   C623.891602,550.035217 625.875854,544.340698 627.909363,538.720215   C630.143921,532.543762 630.043091,532.390808 636.470886,534.727234   C648.337708,539.040649 660.123047,543.579102 672.002686,547.856201   C686.534973,553.088318 701.174927,558.025269 715.651123,563.405212   C718.022644,564.286560 720.485107,566.397461 721.735596,568.603333   C745.856018,611.149170 769.777710,653.807617 793.790161,696.414795   C821.150452,744.962463 848.567688,793.478027 875.943665,842.016846   C887.956665,863.316284 899.930969,884.637390 911.909180,905.956360   C912.301208,906.654053 912.543274,907.435913 913.416809,909.515137   C908.363220,906.826599 904.345520,904.792908 900.424866,902.586853   C866.790283,883.662415 833.167786,864.716248 799.552368,845.757751   C763.907898,825.654968 728.291382,805.502686 692.632141,785.426331   C662.045532,768.205872 631.409790,751.072937 600.808655,733.878235   C590.946716,728.336914 581.078674,722.802490 571.334473,717.059570   C569.799011,716.154663 568.433228,714.334106 567.794739,712.634216   C562.593628,698.785583 557.584351,684.864990 552.363647,670.605347  z"
   id="path10" />
<path
   fill="#FA96FA"
   opacity="1.000000"
   stroke="none"
   d=" M400.859192,485.791321   C402.982147,466.872528 409.830322,450.238068 421.111481,435.617493   C435.976410,416.352173 455.337433,403.439270 479.335083,398.865906   C510.359802,392.953339 539.117737,398.350067 564.245789,418.657806   C582.829895,433.676971 595.130676,452.845612 599.406433,476.213104   C607.515442,520.530334 590.590454,562.691284 548.476318,585.764526   C531.614807,595.002441 513.331238,599.304382 494.236938,597.825317   C473.799133,596.242249 455.126892,589.067871 438.835602,576.294067   C418.256104,560.157898 406.111633,538.802612 401.488983,513.396484   C399.886780,504.590820 400.938660,495.302216 400.859192,485.791321  z"
   id="path12" />
<path
   fill="#FA96FA"
   opacity="1.000000"
   stroke="none"
   d=" M513.073181,330.061523   C509.158051,340.823181 505.344940,351.206360 501.531830,361.589569   C501.139191,361.546021 500.746582,361.502502 500.353973,361.458954   C496.574097,351.101562 492.766754,340.754089 489.019073,330.385101   C471.905579,283.035614 454.797302,235.684235 437.771515,188.303223   C437.338867,187.099213 437.560333,185.430954 438.012634,184.171692   C448.909088,153.832230 459.902924,123.527740 470.827759,93.198448   C480.006714,67.716080 489.112671,42.207417 498.283478,16.722116   C498.837250,15.183296 499.678680,13.747996 500.908356,11.169837   C502.199432,13.831599 503.253418,15.583247 503.934326,17.469566   C523.286377,71.079765 542.546204,124.723427 562.002441,178.295715   C564.056885,183.952332 564.054443,189.015396 561.994385,194.666382   C545.603638,239.629044 529.421387,284.667755 513.073181,330.061523  z"
   id="path14" />
<path
   fill="#FA96FA"
   opacity="1.000000"
   stroke="none"
   d=" M809.644775,560.272644   C784.468811,551.084839 759.637451,542.052124 734.783569,533.081848   C701.986877,521.244873 669.172485,509.456879 635.020142,497.163452   C639.400940,495.451416 642.614136,494.111084 645.884827,492.930054   C699.182922,473.684875 752.466370,454.398468 805.844788,435.378601   C809.150757,434.200592 813.588196,434.109680 816.872986,435.276337   C860.722046,450.849518 904.456177,466.746002 948.226196,482.541962   C961.023376,487.160217 973.843323,491.715240 986.822754,497.422424   C981.374939,499.495422 975.958435,501.655396 970.474548,503.628021   C918.713196,522.246887 866.942871,540.840698 815.159729,559.398865   C813.517578,559.987366 811.709900,560.113647 809.644775,560.272644  z"
   id="path16" />
<path
   fill="#FA96FA"
   opacity="1.000000"
   stroke="none"
   d=" M149.108582,448.107239   C161.366318,443.703522 173.176270,439.193115 185.172394,435.248962   C188.247879,434.237793 192.257736,434.043793 195.252975,435.113434   C250.668198,454.903503 305.995331,474.940247 361.334503,494.943054   C362.519623,495.371429 363.627655,496.013092 366.125824,497.197021   C358.487305,500.079956 352.102631,502.582306 345.654419,504.908722   C295.775909,522.904236 245.882278,540.857849 196.003845,558.853577   C192.377899,560.161804 189.128464,560.479553 185.176147,559.042664   C130.499588,539.164307 75.734276,519.530090 20.997112,499.818298   C19.130539,499.146118 17.331024,498.287720 13.948589,496.862244   C59.694160,480.349792 104.212090,464.280457 149.108582,448.107239  z"
   id="path18" />
<path
   fill="#FA96FA"
   opacity="1.000000"
   stroke="none"
   d=" M563.407104,803.833374   C563.093140,807.758972 563.233154,811.525330 562.056213,814.821533   C546.679993,857.883972 531.113403,900.878357 515.604492,943.893494   C511.769531,954.529907 507.993744,965.187622 504.134796,975.815308   C503.304474,978.102051 502.232361,980.301025 500.749512,983.757446   C496.197815,971.171448 492.100830,959.860718 488.016357,948.545532   C471.305725,902.252197 454.589203,855.960999 437.943298,809.644409   C437.498444,808.406677 437.426453,806.741455 437.865570,805.522278   C449.360107,773.610413 460.960785,741.736816 472.509949,709.844604   C481.335571,685.473328 490.111267,661.083923 498.929535,636.709961   C499.359283,635.522156 499.985077,634.405212 501.862000,633.038330   C522.324341,689.844116 542.786621,746.649841 563.407104,803.833374  z"
   id="path20" />
</svg>