<?xml version="1.0" encoding="UTF-8" standalone="no"?>
<svg
   xmlns:dc="http://purl.org/dc/elements/1.1/"
   xmlns:cc="http://creativecommons.org/ns#"
   xmlns:rdf="http://www.w3.org/1999/02/22-rdf-syntax-ns#"
   xmlns:svg="http://www.w3.org/2000/svg"
   xmlns="http://www.w3.org/2000/svg"
   xmlns:sodipodi="http://sodipodi.sourceforge.net/DTD/sodipodi-0.dtd"
   xmlns:inkscape="http://www.inkscape.org/namespaces/inkscape"
   version="1.1"
   id="Layer_1"
   x="0px"
   y="0px"
   width="100%"
   viewBox="0 0 989 751"
   enable-background="new 0 0 989 751"
   xml:space="preserve"
   sodipodi:docname="Crest of Love.svg"
   inkscape:version="0.92.3 (2405546, 2018-03-11)"><metadata
   id="metadata15"><rdf:RDF><cc:Work
       rdf:about=""><dc:format>image/svg+xml</dc:format><dc:type
         rdf:resource="http://purl.org/dc/dcmitype/StillImage" /><dc:title></dc:title></cc:Work></rdf:RDF></metadata><defs
   id="defs13" /><sodipodi:namedview
   pagecolor="#ffffff"
   bordercolor="#666666"
   borderopacity="1"
   objecttolerance="10"
   gridtolerance="10"
   guidetolerance="10"
   inkscape:pageopacity="0"
   inkscape:pageshadow="2"
   inkscape:window-width="1920"
   inkscape:window-height="1017"
   id="namedview11"
   showgrid="false"
   inkscape:zoom="0.62944798"
   inkscape:cx="159.18014"
   inkscape:cy="375.5"
   inkscape:window-x="-8"
   inkscape:window-y="-8"
   inkscape:window-maximized="1"
   inkscape:current-layer="Layer_1" />

<path
   fill="#FA0101"
   opacity="1.000000"
   stroke="none"
   d=" M793.422546,12.513338   C882.181335,33.057182 942.788574,85.695442 971.535889,171.558105   C998.276245,251.426483 981.497681,324.601135 928.829407,389.711060   C894.459900,432.199554 851.601379,464.397430 803.549988,489.687775   C775.174011,504.622559 746.207581,518.480042 717.170471,532.105469   C637.216919,569.622986 574.327637,626.526001 525.566589,699.613892   C516.426758,713.313599 507.801483,727.356567 498.936554,741.239746   C498.069550,742.597534 497.186584,743.945190 495.920258,745.901123   C494.270355,743.165771 492.933563,740.946167 491.593536,738.728516   C464.800446,694.386108 434.591919,652.688599 397.486053,616.248047   C359.853394,579.290161 315.820862,551.947449 268.642242,529.063477   C236.345871,513.398071 203.798111,498.079285 172.492188,480.584442   C126.848801,455.077332 87.068207,422.109619 55.547451,379.926910   C31.415524,347.632355 14.976442,311.885590 10.263239,271.605774   C3.695212,215.474365 15.640963,163.155029 46.726307,115.939095   C85.825279,56.551167 141.016434,20.915047 211.377289,10.471144   C262.483124,2.885330 311.649353,10.939737 357.541656,35.268719   C380.582184,47.483231 399.273041,64.450638 409.389526,89.288124   C431.513733,143.606216 395.700897,207.510391 337.878479,217.006104   C288.576630,225.102570 244.257858,197.761292 229.288071,150.011978   C229.042191,149.227722 228.823715,148.434875 228.422394,147.065994   C223.922226,149.043976 219.538116,150.876251 215.233704,152.879730   C199.293777,160.299042 184.448715,169.414169 171.627182,181.564819   C139.234421,212.262634 132.711929,252.783279 153.747284,292.128998   C162.294937,308.116974 174.213928,321.135803 188.339935,332.368347   C221.244186,358.532684 257.936829,378.366974 295.412811,396.924133   C332.351349,415.215179 369.428314,433.234894 406.144348,451.962219   C418.103271,458.061951 429.407104,465.591431 440.505676,473.203125   C465.889954,490.612427 479.052765,504.709076 495.723297,531.108521   C495.838287,528.921448 495.980194,527.390259 495.990387,525.858215   C496.328796,475.030426 496.347443,424.198242 497.072083,373.376038   C497.742096,326.383514 500.092041,279.462616 507.044983,232.902100   C511.502716,203.050568 517.397705,173.410263 530.147522,145.902039   C564.084473,72.681900 620.084534,26.850512 700.104065,11.954424   C731.041504,6.195256 762.072327,6.416965 793.422546,12.513338  M877.473816,169.036484   C844.298889,115.431198 783.101624,87.453232 722.686340,98.271362   C638.875793,113.278709 584.570251,191.654877 599.888550,275.498840   C615.160828,359.091431 699.620483,414.182129 782.192261,394.410614   C882.509338,370.390106 929.826355,259.242859 877.473816,169.036484  z"
   id="path4"
   style="stroke:none;stroke-opacity:1;stroke-width:5;stroke-miterlimit:4;stroke-dasharray:none" />

<path
   d=" M722.155701,174.050476   C774.573059,156.319855 827.374878,195.072739 825.885071,249.802109   C824.808655,289.341797 793.524231,321.675201 753.345032,324.774475   C714.499756,327.770844 678.547668,299.610321 671.867920,260.955170   C665.356445,223.273865 684.913513,189.255875 722.155701,174.050476  z"
   id="path8"
   stroke="none"
   fill="#FA0101"
   opacity="1.000000"
   style="stroke:none;stroke-opacity:1;stroke-width:5;stroke-miterlimit:4;stroke-dasharray:none" />
</svg>