<?xml version="1.0" encoding="UTF-8" standalone="no"?>
<svg
   xmlns:dc="http://purl.org/dc/elements/1.1/"
   xmlns:cc="http://creativecommons.org/ns#"
   xmlns:rdf="http://www.w3.org/1999/02/22-rdf-syntax-ns#"
   xmlns:svg="http://www.w3.org/2000/svg"
   xmlns="http://www.w3.org/2000/svg"
   xmlns:sodipodi="http://sodipodi.sourceforge.net/DTD/sodipodi-0.dtd"
   xmlns:inkscape="http://www.inkscape.org/namespaces/inkscape"
   version="1.1"
   id="Layer_1"
   x="0px"
   y="0px"
   width="100%"
   viewBox="0 0 1000 1000"
   enable-background="new 0 0 1000 1000"
   xml:space="preserve"
   sodipodi:docname="Crest_of_Courage.svg"
   inkscape:version="0.92.3 (2405546, 2018-03-11)"><metadata
   id="metadata39"><rdf:RDF><cc:Work
       rdf:about=""><dc:format>image/svg+xml</dc:format><dc:type
         rdf:resource="http://purl.org/dc/dcmitype/StillImage" /></cc:Work></rdf:RDF></metadata><defs
   id="defs37" /><sodipodi:namedview
   pagecolor="#ffffff"
   bordercolor="#666666"
   borderopacity="1"
   objecttolerance="10"
   gridtolerance="10"
   guidetolerance="10"
   inkscape:pageopacity="0"
   inkscape:pageshadow="2"
   inkscape:window-width="1920"
   inkscape:window-height="1017"
   id="namedview35"
   showgrid="false"
   inkscape:zoom="0.87699994"
   inkscape:cx="442.59958"
   inkscape:cy="643.91372"
   inkscape:window-x="-8"
   inkscape:window-y="-8"
   inkscape:window-maximized="1"
   inkscape:current-layer="Layer_1" />

<path
   fill="#FA6400"
   opacity="1.000000"
   stroke="none"
   d=" M522.180908,704.005737   C519.789673,704.340088 517.857178,704.983643 515.936707,704.949524   C502.509033,704.711243 489.005463,705.124817 475.677094,703.805298   C457.713440,702.026917 440.110199,697.737061 423.667633,690.106140   C411.323608,684.377258 399.230377,677.970459 387.546448,670.993103   C374.242798,663.048462 362.582062,652.790771 352.042084,641.461365   C326.448639,613.950989 309.606171,581.662842 301.112793,545.116638   C296.483887,525.199036 295.722198,504.787109 297.211212,484.560974   C299.633453,451.657745 309.908264,421.079468 327.428955,392.924988   C336.508148,378.335327 347.021515,364.967834 359.418060,353.200104   C377.537781,335.999390 398.170746,322.587585 421.279755,312.759216   C436.021515,306.489471 451.206512,301.872650 466.834320,299.283844   C484.926788,296.286743 503.254242,296.297943 521.638367,297.857697   C549.517639,300.222961 575.333618,308.759796 599.747864,321.989838   C613.270142,329.317627 625.479797,338.485748 637.165894,348.511414   C652.272034,361.471252 664.423462,376.823669 674.888306,393.520050   C687.567566,413.749512 696.033569,435.707703 701.145020,459.117523   C705.279297,478.051910 705.764587,497.152161 704.797913,516.226135   C703.706970,537.750916 698.996216,558.779724 690.002808,578.479431   C684.421387,590.705139 678.616150,603.066406 671.043762,614.083008   C662.354675,626.723999 652.574768,638.956116 641.550903,649.583923   C614.382141,675.776550 581.680481,692.407898 544.930786,700.864502   C537.647339,702.540466 530.080994,702.987488 522.180908,704.005737  M582.977051,594.531494   C597.931274,580.850891 609.587463,564.928711 617.086121,545.939636   C622.856018,531.328552 625.241577,516.087036 625.778198,500.629303   C626.046326,492.906067 624.270996,485.057343 622.957275,477.344147   C619.235779,455.493195 609.573242,436.330353 595.105774,419.756256   C581.570618,404.250244 565.222961,392.489075 545.880127,384.896149   C531.255005,379.155212 516.022217,376.748077 500.561981,376.221008   C492.834991,375.957611 484.982056,377.719269 477.268646,379.045349   C455.430908,382.799652 436.271484,392.461304 419.707306,406.941650   C404.210541,420.488800 392.460510,436.833344 384.878937,456.185364   C379.082855,470.979980 376.706879,486.376801 376.214142,502.010712   C375.975739,509.574310 377.737885,517.253662 379.042755,524.803101   C382.695251,545.935364 391.832092,564.701355 405.606232,580.909912   C419.258423,596.974976 435.889740,609.328674 455.790527,616.991638   C477.304688,625.275879 499.511383,627.747314 522.099792,623.798706   C544.739563,619.841187 564.987854,610.170959 582.977051,594.531494  z"
   id="path4" />
<path
   d="m 560.849,745.27814 -58.87723,242.16314 -1.13769,2.87354 -59.78568,-244.54761 z"
   id="path6"
   inkscape:connector-curvature="0"
   style="opacity:1;fill:#fa6400;stroke:none"
   sodipodi:nodetypes="ccccc" />
<path
   d="M 256.74258,560.84381 13.018565,500.48239 256.86661,442.07132 Z"
   id="path8"
   inkscape:connector-curvature="0"
   style="opacity:1;fill:#fa6400;stroke:none"
   sodipodi:nodetypes="cccc" />
<path
   d="M 441.151,256.72195 501.11356,11.762485 560.3161,256.62152 Z"
   id="path10"
   inkscape:connector-curvature="0"
   style="opacity:1;fill:#fa6400;stroke:none"
   sodipodi:nodetypes="cccc" />
<path
   d="m 744.98218,441.16574 244.06756,60.3476 -243.47772,58.92715 z"
   id="path12"
   inkscape:connector-curvature="0"
   style="opacity:1;fill:#fa6400;stroke:none"
   sodipodi:nodetypes="cccc" />
<path
   d="m 716.08032,370.20431 -84.31537,-84.33096 128.7818,-44.66609 z"
   id="path14"
   inkscape:connector-curvature="0"
   style="opacity:1;fill:#fa6400;stroke:none"
   sodipodi:nodetypes="cccc" />
<path
   d="m 371.35184,715.73688 c -43.27274,15.00909 -85.9585,29.81457 -130.26479,45.18213 15.33421,-44.22962 30.14598,-86.95221 45.13942,-130.19898 30.32911,30.35926 57.51314,57.52736 85.12537,85.01685 z"
   id="path16"
   inkscape:connector-curvature="0"
   style="opacity:1;fill:#fa6400;stroke:none"
   sodipodi:nodetypes="cccc" />
<path
   d="m 241.75961,241.35973 128.43595,44.53138 -84.17676,84.12131 z"
   id="path18"
   inkscape:connector-curvature="0"
   style="opacity:1;fill:#fa6400;stroke:none"
   sodipodi:nodetypes="cccc" />
<path
   d="m 631.67737,715.89355 84.33252,-84.32696 44.83069,129.21142 z"
   id="path20"
   inkscape:connector-curvature="0"
   style="opacity:1;fill:#fa6400;stroke:none"
   sodipodi:nodetypes="cccc" />





<path
   fill="#FA6400"
   opacity="1.000000"
   stroke="none"
   d=" M453.253876,562.751587   C436.449646,549.728882 427.220306,532.879822 423.884613,512.296143   C421.324982,496.501068 423.968140,481.564606 430.396362,467.402100   C436.581360,453.775543 446.443817,442.912140 459.300293,434.935120   C473.763336,425.961365 489.548096,421.792328 506.426056,423.121002   C522.053772,424.351257 536.453674,429.422272 548.949097,439.388489   C565.531921,452.614746 575.200256,469.516632 578.109558,490.603577   C581.133484,512.521057 575.554810,531.837280 562.275879,549.256775   C550.797119,564.314697 535.565125,573.419678 517.260925,577.258240   C493.957001,582.145325 472.646210,577.221802 453.253876,562.751587  z"
   id="path32" />
</svg>