<?xml version="1.0" encoding="UTF-8" standalone="no"?>
<svg
   xmlns:dc="http://purl.org/dc/elements/1.1/"
   xmlns:cc="http://creativecommons.org/ns#"
   xmlns:rdf="http://www.w3.org/1999/02/22-rdf-syntax-ns#"
   xmlns:svg="http://www.w3.org/2000/svg"
   xmlns="http://www.w3.org/2000/svg"
   xmlns:sodipodi="http://sodipodi.sourceforge.net/DTD/sodipodi-0.dtd"
   xmlns:inkscape="http://www.inkscape.org/namespaces/inkscape"
   version="1.1"
   id="Layer_1"
   x="0px"
   y="0px"
   width="100%"
   viewBox="0 0 991 531"
   enable-background="new 0 0 991 531"
   xml:space="preserve"
   sodipodi:docname="Crest of Knowledge.svg"
   inkscape:version="0.92.3 (2405546, 2018-03-11)"><metadata
   id="metadata17"><rdf:RDF><cc:Work
       rdf:about=""><dc:format>image/svg+xml</dc:format><dc:type
         rdf:resource="http://purl.org/dc/dcmitype/StillImage" /></cc:Work></rdf:RDF></metadata><defs
   id="defs15" /><sodipodi:namedview
   pagecolor="#ffffff"
   bordercolor="#666666"
   borderopacity="1"
   objecttolerance="10"
   gridtolerance="10"
   guidetolerance="10"
   inkscape:pageopacity="0"
   inkscape:pageshadow="2"
   inkscape:window-width="1920"
   inkscape:window-height="1017"
   id="namedview13"
   showgrid="false"
   inkscape:zoom="0.88837735"
   inkscape:cx="159.50204"
   inkscape:cy="265.5"
   inkscape:window-x="-8"
   inkscape:window-y="-8"
   inkscape:window-maximized="1"
   inkscape:current-layer="Layer_1" />

<path
   fill="#9601FA"
   opacity="1.000000"
   stroke="none"
   d=" M134.172089,487.842712   C67.664162,446.359314 26.040707,387.638702 12.541615,310.770172   C-11.611773,173.232361 75.429398,47.327244 204.020660,15.252604   C339.809875,-18.617428 476.335205,60.096336 515.481995,194.012283   C517.057129,199.400650 518.392456,204.859100 519.967224,210.763458   C549.834290,203.157928 579.449829,203.188721 609.247192,211.372513   C609.874023,209.790207 610.439026,208.472290 610.923340,207.125381   C636.945190,134.766693 687.627136,90.541840 763.345886,77.487602   C863.947144,60.143532 961.511475,129.777649 980.136780,230.524506   C999.408936,334.770081 932.119690,433.412140 827.887817,453.712128   C725.606506,473.632294 624.038696,404.554535 605.130981,302.108704   C604.559326,299.011444 603.409790,297.697296 600.377136,296.819336   C576.208313,289.821991 552.049133,290.574005 527.798401,296.270538   C524.747681,296.987152 523.526428,298.446198 523.087158,301.549896   C507.557220,411.280945 426.136658,498.083527 317.246002,519.593140   C252.592651,532.364319 191.448898,521.468994 134.172089,487.842712  M310.001373,102.424728   C286.616882,96.378304 262.979492,95.255730 239.169952,99.205841   C147.454773,114.421745 85.269775,201.389755 100.178795,293.468658   C116.297440,393.018341 217.020386,456.587036 314.041412,428.442474   C397.900116,404.116180 450.046875,320.525024 432.849609,234.589706   C419.221527,166.489761 377.207062,122.842117 310.001373,102.424728  M856.324951,344.862183   C885.695435,319.684357 898.718567,287.787811 892.493103,249.611938   C883.386230,193.766739 832.751038,157.769592 776.702393,165.898331   C719.834167,174.145950 680.645386,231.523895 693.511230,287.701874   C710.369446,361.311737 796.207703,391.773834 856.324951,344.862183  z"
   id="path4" />


<path
   fill="#9601FA"
   opacity="1.000000"
   stroke="none"
   d=" M201.278046,221.312607   C221.976944,193.316132 249.486633,181.522827 283.130127,188.354568   C315.516449,194.931030 336.284241,215.654068 344.382904,247.780869   C357.255341,298.844727 314.903259,349.112854 262.725952,345.322479   C200.435287,340.797363 167.250458,274.209259 201.278046,221.312607  z"
   id="path10" />
</svg>