<?xml version="1.0" encoding="UTF-8" standalone="no"?>
<svg
   xmlns:dc="http://purl.org/dc/elements/1.1/"
   xmlns:cc="http://creativecommons.org/ns#"
   xmlns:rdf="http://www.w3.org/1999/02/22-rdf-syntax-ns#"
   xmlns:svg="http://www.w3.org/2000/svg"
   xmlns="http://www.w3.org/2000/svg"
   xmlns:sodipodi="http://sodipodi.sourceforge.net/DTD/sodipodi-0.dtd"
   xmlns:inkscape="http://www.inkscape.org/namespaces/inkscape"
   version="1.1"
   id="Layer_1"
   x="0px"
   y="0px"
   width="100%"
   viewBox="0 0 626 989"
   enable-background="new 0 0 626 989"
   xml:space="preserve"
   sodipodi:docname="Crest of Hope.svg"
   inkscape:version="0.92.3 (2405546, 2018-03-11)"><metadata
   id="metadata23"><rdf:RDF><cc:Work
       rdf:about=""><dc:format>image/svg+xml</dc:format><dc:type
         rdf:resource="http://purl.org/dc/dcmitype/StillImage" /></cc:Work></rdf:RDF></metadata><defs
   id="defs21" /><sodipodi:namedview
   pagecolor="#ffffff"
   bordercolor="#666666"
   borderopacity="1"
   objecttolerance="10"
   gridtolerance="10"
   guidetolerance="10"
   inkscape:pageopacity="0"
   inkscape:pageshadow="2"
   inkscape:window-width="1920"
   inkscape:window-height="1017"
   id="namedview19"
   showgrid="false"
   inkscape:zoom="0.5230624"
   inkscape:cx="368.55994"
   inkscape:cy="494.5"
   inkscape:window-x="-8"
   inkscape:window-y="-8"
   inkscape:window-maximized="1"
   inkscape:current-layer="Layer_1" />

<path
   fill="#FAFA00"
   opacity="1.000000"
   stroke="none"
   d=" M121.992599,622.998840   C138.070847,560.946228 154.079529,499.300598 170.233505,437.095520   C208.882019,479.658173 256.483124,502.456726 313.676086,502.553467   C370.735046,502.649994 418.314301,480.131897 457.465942,437.434418   C502.214600,609.938599 546.803650,781.827454 591.634521,954.648682   C588.199646,953.914673 585.676086,953.478088 583.207397,952.832031   C558.269226,946.306519 533.362671,939.657043 508.373840,933.332581   C505.832367,932.689270 502.407806,933.184204 500.074036,934.428284   C471.289093,949.773193 442.587463,965.276672 413.991455,980.970886   C410.132385,983.088806 407.782288,982.669861 404.481964,979.899658   C376.280151,956.227417 347.905884,932.760681 319.579437,909.237000   C317.797516,907.757202 315.984528,906.314819 313.773834,904.520447   C304.729584,912.005005 295.778839,919.395874 286.845764,926.807983   C265.177124,944.787537 243.465546,962.716064 221.917450,980.838928   C219.209061,983.116821 217.376251,982.932922 214.512360,981.372314   C185.869003,965.764160 157.113693,950.361328 128.484497,934.727478   C125.028778,932.840271 122.034607,932.384705 118.189217,933.414551   C91.069786,940.677490 63.885746,947.699036 35.938572,955.002502   C38.780605,943.882935 41.442444,933.333679 44.173912,922.802429   C69.893806,823.639343 95.625481,724.479248 121.356796,625.319153   C121.523750,624.675720 121.733353,624.043396 121.992599,622.998840  z"
   id="path4"
   style="fill:#ffd42a" />
<path
   fill="#FAFA00"
   opacity="1.000000"
   stroke="none"
   d=" M418.147217,197.837906   C454.554932,232.110794 471.471436,273.979706 468.837280,323.501343   C465.185608,392.151215 411.956818,452.417664 344.218109,465.080078   C260.225677,480.780823 181.719345,429.598328 162.492538,346.603424   C142.611755,260.785553 201.749954,173.140366 288.591217,159.901276   C337.475922,152.448700 380.578003,165.167953 418.147217,197.837906  z"
   id="path6"
   style="fill:#ffd42a" />
<path
   fill="#FAFA02"
   opacity="1.000000"
   stroke="none"
   d=" M215.644257,150.603668   C185.126373,169.295593 161.945206,194.403717 144.815430,226.674149   C129.335648,183.321503 114.210190,140.961197 98.744926,97.649208   C142.038208,113.100548 184.362274,128.205963 227.564896,143.624954   C223.260773,146.134872 219.603882,148.267349 215.644257,150.603668  z"
   id="path8"
   style="fill:#ffd42a" />
<path
   fill="#FAFA02"
   opacity="1.000000"
   stroke="none"
   d=" M499.072449,182.121719   C493.834625,196.856781 488.703796,211.214905 483.191956,226.639389   C463.920410,190.318771 436.751953,163.049728 400.203583,143.718307   C443.555725,128.239105 485.865540,113.132072 529.271240,97.633759   C519.037354,126.238968 509.108429,153.991882 499.072449,182.121719  z"
   id="path10"
   style="fill:#ffd42a" />
<path
   fill="#FAFA02"
   opacity="1.000000"
   stroke="none"
   d=" M125.765060,336.198425   C127.998535,348.007202 130.176071,359.368286 132.426453,371.109375   C91.847244,351.877991 51.270947,332.647949 9.610441,312.904114   C51.269646,293.157715 91.761139,273.964813 133.322510,254.264801   C125.177132,281.546783 122.071487,308.369507 125.765060,336.198425  z"
   id="path12"
   style="fill:#ffd42a" />
<path
   fill="#FAFA02"
   opacity="1.000000"
   stroke="none"
   d=" M567.882935,336.870544   C543.545837,348.376160 519.555908,359.735504 494.598724,371.552795   C506.723969,332.207794 506.764679,293.738220 494.579468,254.228470   C536.135193,273.914154 576.632690,293.098572 618.332642,312.852600   C601.016785,321.102875 584.623352,328.913605 567.882935,336.870544  z"
   id="path14"
   style="fill:#ffd42a" />
<path
   fill="#FAFA02"
   opacity="1.000000"
   stroke="none"
   d=" M314.000702,123.090080   C294.113739,123.243095 275.140137,126.192207 255.327621,132.333969   C275.035400,90.734062 294.283417,50.104671 313.996307,8.494037   C333.706360,50.083683 352.951416,90.692062 372.656555,132.271317   C353.084747,126.308029 334.006836,123.194374 314.000702,123.090080  z"
   id="path16"
   style="fill:#ffd42a" />
</svg>